<?xml version="1.0" encoding="UTF-8"?>
<svg width="134px" height="30px" viewBox="0 0 134 30" version="1.1" xmlns="http://www.w3.org/2000/svg" xmlns:xlink="http://www.w3.org/1999/xlink">
    <title>Slice</title>
    <g id="Page-1" stroke="none" stroke-width="1" fill="none" fill-rule="evenodd">
        <g id="适配标准" transform="translate(-360.000000, -180.000000)">
            <g id="Group" transform="translate(199.000000, 160.000000)">
                <g id="logo/横排" transform="translate(161.000000, 20.000000)">
                    <g id="编组-2">
                        <path d="M16.4416248,0.972558688 C16.4416248,0.972558688 15.1249607,1.07715139 14.9927789,2.00032262 C14.8237794,3.17997002 13.9852817,9.03525443 13.8167465,10.2097532 C13.6482112,11.3842521 14.7949009,11.3381531 14.6922476,11.3681865 C14.5895943,11.39822 23.8804361,11.7462744 23.8804361,11.7462744 C23.8804361,11.7462744 22.6198575,20.54622 22.4617223,21.6497349 C22.303587,22.7532499 23.4465623,22.9530916 23.4465623,22.9530916 L31.1322801,23.8232037 C32.4130551,23.9681747 32.5811725,22.7954398 32.5811725,22.7954398 L35.7171351,0.903529411 C35.7171351,0.903529411 35.7099387,-0.0832841377 34.8042591,0.00567209817 C33.8985795,0.0946283341 16.4416248,0.972558688 16.4416248,0.972558688 Z" id="形状_1_拷贝_2" fill="#00D6E1"></path>
                        <path d="M2.64184105,7.1369073 C2.64184105,7.1369073 1.32501665,7.24178594 1.19283277,8.16467032 C1.02387699,9.34441203 0.185319573,15.199596 0.016920938,16.3741891 C-0.151477697,17.5487822 0.994998039,17.5025403 0.892343123,17.5326214 C0.789688206,17.5627025 10.0806778,17.9106612 10.0806778,17.9106612 C10.0806778,17.9106612 8.81984699,26.710742 8.66180207,27.8142084 C8.50375714,28.9176747 9.6466114,29.1175162 9.6466114,29.1175162 L17.3324514,29.9875799 C18.6132467,30.1325984 18.7813204,28.9598169 18.7813204,28.9598169 L21.9173329,7.06792575 C21.9173329,7.06792575 21.9102757,6.08135143 21.0044888,6.17002156 C20.0987019,6.25869168 2.64184105,7.1369073 2.64184105,7.1369073 Z" id="形状_1_拷贝_2" fill="#0175FF"></path>
                        <path d="M21.0044888,6.17002156 C21.9102757,6.08135143 21.9173329,7.06792575 21.9173329,7.06792575 L21.9173329,7.06792575 L21.2621909,11.646732 C18.5228508,11.5414085 14.6255632,11.3876965 14.6922476,11.3681865 C14.7949009,11.3381531 13.6482112,11.3842521 13.8167465,10.2097532 C13.8940961,9.67071422 14.1125649,8.14572721 14.3426637,6.53930084 C17.7426378,6.36131651 20.6489055,6.20483064 21.0044888,6.17002156 Z" id="形状结合" fill="#005BEC"></path>
                    </g>
                    <g id="logo/文字" transform="translate(41.548504, 4.057377)" fill="#016EFD">
                        <path d="M71.0491133,12.584321 C68.8897084,12.0257061 67.7930432,11.2687193 67.7899415,10.3341898 C67.7854827,9.01938156 68.7740241,8.25644366 70.6819428,8.25644366 C72.5898615,8.25644366 73.5942993,8.87972782 73.75656,10.1616063 C73.7893224,10.4194897 74.0140059,10.6216305 74.2708702,10.6216305 C75.1453381,10.6162084 75.6303755,10.6134973 75.7259823,10.6134973 C75.8693925,10.6134973 76.055662,10.4610149 76.0241387,10.1354213 C75.9124875,8.98221228 75.4952891,8.06898231 74.7849866,7.4207033 C73.904669,6.61709918 72.2176317,6.14197454 70.7451411,6.21876862 C67.3446454,6.396113 65.5874997,7.81149573 65.5229444,10.4252424 C65.454318,12.5865031 67.0044178,13.9122592 70.0898948,14.60811 C73.1753717,15.3039608 74.3329054,16.229601 74.3365887,17.3023957 C74.2751351,19.0072029 73.1753717,20.0726577 70.9025553,20.0726577 C68.7907192,20.0726577 67.5908474,19.2339418 67.3105261,17.6880304 C67.2659383,17.4422478 67.047846,17.2569685 66.8006747,17.2569685 L65.5564821,17.2639116 C65.3520992,17.2652311 65.1135378,17.4836758 65.1307659,17.730482 C65.2099156,18.8643679 65.6016515,19.7818447 66.2948943,20.4576974 C67.1882005,21.3281528 68.5878459,21.8852459 70.512897,21.8852459 C74.3463923,21.8852459 76.4948305,20.0726577 76.4948305,17.0734746 C76.4948305,15.3253446 75.5646909,14.1240829 73.9853147,13.490285 C73.5314281,13.308142 72.0033259,12.8311656 71.0491133,12.584321 Z M56.3297189,6.21067789 C58.2008293,6.23707307 59.6976395,6.78918874 60.7801226,7.85154504 C62.1328361,9.17765465 62.8609348,11.3297547 62.9441127,14.2477119 C62.9476272,14.3673832 62.905843,14.4785208 62.8267655,14.5608817 C62.7467118,14.6440365 62.635808,14.6902776 62.5145558,14.6910715 L62.5145558,14.6910715 L52.1796144,14.7488233 C52.1776619,14.7488233 52.173171,14.7490218 52.1712185,14.7510064 C52.1698517,14.7525941 52.168485,14.7561663 52.1690707,14.7623186 C52.3192204,16.6921435 52.8612429,18.1109339 53.7799087,18.9789979 C54.5164034,19.6749971 55.5254714,20.0417511 56.7793868,20.0695355 L56.7793868,20.0695355 L56.7938355,20.0687417 C58.7123924,19.9141413 59.970408,18.8261837 60.5311749,16.8348362 C60.5838933,16.6476885 60.7459533,16.525834 60.94394,16.5240479 L60.94394,16.5240479 L62.1400604,16.5176972 C62.2948961,16.5176972 62.4458268,16.5919212 62.5463821,16.7161572 C62.6490852,16.8435685 62.6867691,17.0074964 62.6467422,17.1543568 C61.7962197,20.2935968 59.7111119,21.8852459 56.4492138,21.8852459 C56.3935666,21.8852459 56.3379195,21.8846505 56.2818819,21.8838567 C54.550768,21.8241202 53.1549036,21.2845075 52.1309964,20.2799031 C50.8368589,19.0101561 50.1122747,16.9668121 49.9773548,14.2066307 L49.9773548,14.2066307 L49.9773548,14.1546341 C50.2555904,9.14411492 52.378382,6.47204969 56.2867632,6.21186865 C56.3019929,6.21127327 56.3158559,6.21067789 56.3297189,6.21067789 Z M56.3541255,8.24945731 C53.8310152,8.26379738 52.7546348,9.89151522 52.3010618,12.6614212 C52.2993045,12.6709473 52.3036001,12.6822595 52.3121912,12.6917856 C52.3219539,12.7028994 52.3342548,12.7092501 52.345189,12.7092501 L52.345189,12.7092501 L60.6248964,12.6630089 C60.6289967,12.6630089 60.6317303,12.6620166 60.6332923,12.6604289 C60.6352448,12.6580474 60.6362211,12.6536813 60.6354401,12.6483229 C60.2943329,9.75041017 58.8772358,8.23511723 56.3541255,8.24945731 Z M21.4185525,6.35855117 C25.9353901,6.35855117 27.9752523,9.83432018 27.9752523,14.1218985 C27.9752523,18.4094769 25.9353901,21.8852459 21.4185525,21.8852459 C16.9017149,21.8852459 14.8618528,18.4094769 14.8618528,14.1218985 C14.8618528,9.83432018 16.9017149,6.35855117 21.4185525,6.35855117 Z M14.4243399,0 C14.6659716,-1.06193613e-15 14.8618528,0.195881187 14.8618528,0.437512877 L14.8618528,1.92845965 C14.8618528,2.17009134 14.6659716,2.36597253 14.4243399,2.36597253 L8.596,2.365 L8.5965619,21.447733 C8.5965619,21.6893647 8.40068071,21.8852459 8.15904902,21.8852459 L6.70280375,21.8852459 C6.46117206,21.8852459 6.26529088,21.6893647 6.26529088,21.447733 L6.265,2.365 L0.437512877,2.36597253 C0.195881187,2.36597253 2.95913476e-17,2.17009134 0,1.92845965 L0,0.437512877 C-2.95913476e-17,0.195881187 0.195881187,9.98981726e-17 0.437512877,0 L14.4243399,0 Z M21.4185525,8.42877714 C18.5044637,8.42877714 17.1931238,10.8960063 17.1931238,14.1218985 C17.1931238,17.3477908 18.5044637,19.8150199 21.4185525,19.8150199 C24.3326413,19.8150199 25.6439813,17.3477908 25.6439813,14.1218985 C25.6439813,10.8960063 24.3326413,8.42877714 21.4185525,8.42877714 Z M80.7198596,0 C80.9614913,-4.43870214e-17 81.1573725,0.195881187 81.1573725,0.437512877 L81.1565104,12.243 L87.5912435,6.3633949 C87.6987527,6.26515295 87.8391211,6.21067789 87.9847567,6.21067789 L90.0552271,6.21067789 C90.2163149,6.21067789 90.3469024,6.34126535 90.3469024,6.50235314 C90.3469024,6.58426939 90.3124557,6.66240995 90.2519848,6.71766885 L84.2345104,12.2146779 L92.3840886,21.3999964 C92.4909959,21.5204957 92.4799774,21.7048453 92.359478,21.8117526 C92.3061127,21.8590985 92.2372458,21.8852445 92.1659051,21.8852445 L90.3319697,21.8852445 C90.1651508,21.8852445 90.0063133,21.8138258 89.8956025,21.6890393 L82.7185104,13.6006779 L81.1565104,15.028 L81.1573725,21.447733 C81.1573725,21.6893647 80.9614913,21.8852459 80.7198596,21.8852459 L79.5550232,21.8852459 C79.3133915,21.8852459 79.1175104,21.6893647 79.1175104,21.447733 L79.1175104,0.437512877 C79.1175104,0.195881187 79.3133915,-6.66352811e-17 79.5550232,0 L80.7198596,0 Z M31.6178633,0 L36.2804053,0 C36.3809414,0 36.4852803,0.000532343819 36.5931035,0.00184457133 L36.8133011,0.00558221644 C40.3703289,0.083548405 47.2082382,1.10904962 47.2082382,10.942623 L47.205977,11.2502381 C47.0630375,20.9063287 40.1788211,21.8242816 36.694407,21.8819482 L36.4833012,21.8844871 L36.2804053,21.8852459 L31.6178633,21.8852459 C31.3850741,21.8852459 31.194787,21.700564 31.181492,21.4676921 L31.1807499,21.4416261 L31.1807499,0.443619849 C31.1807499,0.198615372 31.3764522,0 31.6178633,0 Z M33.512021,19.5192772 L36.2762377,19.5192772 L36.3727311,19.5192772 C38.5688721,19.5110408 40.3443037,19.1748125 41.7804525,18.279832 C43.6822336,17.0946783 44.7975705,14.9695782 44.8730018,11.3255867 L44.8746359,11.2289056 L44.8770321,10.924973 L44.876629,10.8268618 C44.85432,7.02293691 43.7291291,4.82005393 41.7809553,3.60572731 C40.3468081,2.71180137 38.5894944,2.37772529 36.3982113,2.36627847 L36.2804053,2.36597253 L33.512021,2.36597253 L33.512021,19.5192772 Z" id="形状结合"></path>
                    </g>
                </g>
            </g>
        </g>
    </g>
</svg>